<?xml version="1.0" encoding="utf-8"?>
<!-- Generator: Adobe Illustrator 23.0.0, SVG Export Plug-In . SVG Version: 6.00 Build 0)  -->
<svg version="1.1" id="Layer_1" xmlns="http://www.w3.org/2000/svg" xmlns:xlink="http://www.w3.org/1999/xlink" x="0px" y="0px"
	 viewBox="0 0 785.74 176.68" style="enable-background:new 0 0 785.74 176.68;" xml:space="preserve">
<style type="text/css">
	.st0{fill:#B59E67;}
</style>
<g>
	<path class="st0" d="M220.79,49.41c-1.59,0.13-5.46,0.13-8.65,0.13c-3.86,0-9.05,0-10.65-0.13c-0.39-0.13-0.53-0.54-0.53-1.06
		c2.66-7.99,7.45-20.1,9.72-27.16c0.14-0.13,0.67-0.13,0.8-0.13c2.13,5.33,7.59,20.11,9.99,27.03
		C221.72,48.74,221.19,49.41,220.79,49.41 M244.36,71.24c-5.2-11.84-19.83-50.72-22.5-58.17c-0.94-2.66-1.87-5.19-2.54-7.85
		c-0.53,0.13-2.13,0.13-5.19,0.13c-2.54,0-4.4,0-5.07-0.13c-0.27,2.13-1.46,5.6-2.53,8.65c-2.93,8.66-17.43,46.32-23.29,60.18
		c-2.8,6.38-3.8,8.59-6.73,8.72c-1.06-0.05-3.24,0.52-4.17,0.34l0.35,4.91c5.06-0.11,10.93-0.28,13.07-0.28
		c12.51,0,14.11,0.4,16.78,0.4c0.53-0.81,0.8-4.66,0.39-5.33c-2.52-0.27-5.32-0.65-7.05-1.05c-4-0.93-4.4-1.87-4.4-4.39
		c0-2.68,3.33-11.33,6.13-18.91c0.13-0.27,0.93-1.2,1.6-1.2c1.6-0.14,2.26-0.14,10.91-0.14c4.79,0,10.92,0,13.31,0.14
		c0.4,0,1.19,0.27,1.46,0.93c2.13,5.2,5.59,14.25,7.19,19.83c0.41,0.94,0.13,2.66-1.46,3.33c-1.99,0.66-5.05,1.19-7.72,1.46
		c-0.8,0.68-0.67,4.67,0,5.33c2.53,0,11.19-0.4,19.18-0.4c7.58,0,14.1,0.27,17.56,0.4c0.54-0.67,0.93-4.8,0.14-5.33
		C249.8,81.5,248.61,80.69,244.36,71.24 M136.26,44.75c-2,0.93-5.46,1.6-18.1,1.6c-0.41,0-0.66-0.39-0.66-0.66
		c0-9.18,0-26.89,0.26-31.82c0-0.66,0.67-1.86,1.07-2.12c1.46-0.54,4.26-0.81,5.06-0.81c14.25,0,20.24,7.2,20.24,19.44
		C144.13,38.1,140.39,42.63,136.26,44.75 M172.16,94.65c-6.65-7.06-24.97-38.46-29.64-45.78c-0.13-0.26,0-0.92,0.27-1.06
		c8.78-3.86,15.03-10.91,15.03-21.3c0-11.31-8.78-21.29-24.75-21.29c-4.79,0-12.64,0.13-23.56,0.13c-4.53,0-13.84-0.4-16.78-0.4
		c-0.8,0.52-1.06,4.39-0.4,5.19c3.06,0.4,5.6,0.79,7.86,1.33c3.59,0.93,4.39,2.26,4.53,6.25c0.13,3.06,0.13,11.99,0.13,29.82
		c0,7.46-0.13,24.37-0.4,27.03c-0.27,5.19-1.6,6.52-4.79,7.19c-2,0.4-4.13,0.79-7.19,1.05c-0.79,0.8-0.79,4.41,0,5.33
		c3.06,0,9.45-0.4,18.24-0.4c10.79,0,16.5,0.4,19.56,0.4c0.8-0.53,1.06-4.66,0.4-5.33c-3.6-0.39-6-0.65-8.13-1.19
		c-3.45-0.66-4.51-2.13-4.79-5.72c-0.26-3.46-0.26-15.05-0.26-22.36c0-0.28,0.4-0.81,0.4-0.81c2.12,0,8.52,0,10.11,0.27
		c1.07,0.14,2.53,0.67,3.33,1.74c5.06,7.45,23.99,35.61,29.04,41.87c5.45,5.99,6.91,7.16,15.56,7.76
		c1.06,0.06,12.81,0.69,14.63,0.66l-1.6-1.82C175.74,101.13,174.32,96.71,172.16,94.65 M780.93,4.95c-1.87,0-10.66,0.4-15.57,0.4
		c-9.85,0-16.24-0.4-19.57-0.4c-0.66,0.66-0.66,4.53,0,5.19c3.86,0.53,7.05,1.2,9.72,1.86c4.25,1.07,5.05,2.8,5.32,6.92
		c0.53,10.25,0.39,29.94,0.39,48.72c0,0.27-0.27,0.4-0.53,0.27c-7.05-8.39-32.22-38.87-45.13-55.38c-3.46-4.39-4-5.46-4.53-7.19
		h-6.12c-8.51,0-15.43-0.4-19.57-0.4c-0.66,0.66-0.8,4.53,0,5.19c5.07,0.53,8.12,1.45,10.65,2.26c3.47,1.46,4.13,4.53,4.13,6.79
		c-0.4,28.23-0.67,47.66-1.33,55.23c-0.27,4-1.87,5.86-4.94,6.93c-2.12,0.66-4.91,1.07-8.11,1.46c-0.53,0.68-0.67,4.93,0,5.33
		c2.93,0,8.52-0.4,18.11-0.4c8.11,0,14.24,0.4,17.96,0.4c0.66-0.81,0.93-4.4,0.27-5.33c-3.74-0.52-6.67-0.79-8.65-1.46
		c-3.86-0.94-5.32-2.93-5.59-7.19c-0.54-7.73-0.41-35.81-0.28-49.93c0-0.13,0.54-0.26,0.66,0c9.73,12.12,42.61,53.66,50.18,64.29
		c1.33-0.26,9.06-0.39,10.52-0.12c-0.13-4.53-0.26-12.38-0.26-18.64c0.4-31.41,0.26-40.47,1.05-50.85c0.4-3.86,1.21-5.99,4.93-7.18
		c1.47-0.54,3.72-1.06,6.26-1.6C781.59,9.34,781.72,5.61,780.93,4.95 M591.91,81.36c-4.25-1.07-4.92-2.93-5.06-7.05
		c-0.26-4.66-0.39-17.18-0.39-29.56c0-11.71-0.15-21.29,0.26-27.02c0.27-4,0.79-5.58,3.99-6.39c1.86-0.53,4.26-0.8,7.85-1.2
		c0.66-0.93,0.54-4.39,0-5.19c-3.6,0-11.85,0.4-19.03,0.4c-7.06,0-15.71-0.4-18.37-0.4c-0.54,0.66-0.81,4.53-0.14,5.19
		c3.99,0.53,6.52,0.93,8.93,1.6c2.78,0.8,3.19,2.26,3.47,5.85c0.39,6.27,0.26,13.85,0.26,25.04c0,21.81,0.13,29.68-0.41,33.53
		c-0.39,2.66-0.93,4.53-5.19,5.6c-1.99,0.4-3.86,0.66-7.46,1.05c-0.66,0.54-0.66,4.93,0.14,5.33c2.39,0,12.24-0.4,20.1-0.4
		c7.05,0,16.64,0.4,19.58,0.4c0.66-0.53,1.05-4.8,0.39-5.33C596.97,82.29,593.91,81.76,591.91,81.36 M540,5.35h-49.39
		c-5.98,0-8.78-0.67-11.04-1.87c-0.4-0.26-2.14,0.27-2.14,0.67c-0.39,6.25-1.85,17.7-2.92,23.56c0.26,0.8,4.92,2,5.72,1.59
		c2.13-5.98,3.86-10.51,5.45-13.17c1.74-3.06,3.73-3.86,5.86-3.86h15.84c0.4,0,0.93,0.66,0.93,1.2c0,22.75-0.14,43.65-0.53,58.17
		c-0.26,6.11-0.93,8.77-5.46,9.71c-2.27,0.53-5.99,0.93-10.12,1.46c-0.53,0.68-0.67,4.67,0,5.33c3.19-0.13,9.98-0.4,21.17-0.4
		c10.64,0,19.03,0.27,22.75,0.4c0.8-0.53,1.2-4.53,0.66-5.33c-5.85-0.79-8.78-1.05-11.04-1.72c-3.19-0.93-4-3.06-4.26-5.46
		c-0.54-6.66-0.4-42.19-0.4-62.29c0-0.27,0.27-0.8,0.66-0.93c3.21-0.13,10.25-0.13,17.58,0c2.53,0,4.13,1.07,5.34,3.72
		c0.92,2.53,1.71,7.33,2.12,12.78c0.54,0.67,5.32,0.81,5.99,0c0.66-7.46,1.86-19.43,3.2-24.89c-0.27-0.27-1.34-0.94-2-0.8
		C550.37,5.08,547.18,5.35,540,5.35 M298.8,88.15c0.66-0.81,0.92-4.4,0.27-5.33c-3.74-0.52-6.66-0.79-8.66-1.46
		c-3.86-0.94-5.33-2.93-5.59-7.19c-0.53-7.73-0.4-35.81-0.26-49.93c0-0.13,0.52-0.26,0.66,0c9.72,12.12,42.61,53.66,50.19,64.29
		c1.33-0.26,9.05-0.39,10.52-0.12c-0.14-4.53-0.27-12.38-0.27-18.64c0.41-31.41,0.27-40.47,1.06-50.85c0.4-3.86,1.2-5.99,4.93-7.18
		c1.47-0.54,3.73-1.06,6.25-1.6c0.67-0.81,0.8-4.53,0-5.19c-1.86,0-10.65,0.4-15.57,0.4c-9.85,0-16.24-0.4-19.57-0.4
		c-0.66,0.66-0.66,4.53,0,5.19c3.86,0.53,7.05,1.2,9.72,1.86c4.26,1.07,5.06,2.8,5.32,6.92c0.53,10.25,0.41,29.94,0.41,48.72
		c0,0.27-0.27,0.4-0.53,0.27c-7.06-8.39-32.22-38.87-45.13-55.38c-3.46-4.39-3.99-5.46-4.52-7.19h-6.12c-8.52,0-15.45-0.4-19.57-0.4
		c-0.66,0.66-0.8,4.53,0,5.19c5.06,0.53,8.13,1.45,10.65,2.26c3.46,1.46,4.12,4.53,4.12,6.79c-0.4,28.23-0.67,47.66-1.33,55.23
		c-0.27,4-1.87,5.86-4.93,6.93c-2.13,0.66-4.92,1.07-8.11,1.46c-0.54,0.68-0.67,4.93,0,5.33c2.93,0,8.52-0.4,18.1-0.4
		C288.95,87.75,295.07,88.15,298.8,88.15 M668.32,75.9c-2.8,3.99-4.8,5.06-8.39,5.06c-2.92,0-19.82,0.13-22.5-0.67
		c-1.72-0.66-3.05-3.19-3.05-5.32c-0.27-5.32-0.27-15.7-0.27-24.36c0-0.54,0.4-1.07,0.79-1.07c6.13,0,14.92-0.13,19.31,0.41
		c1.86,0.26,3.21,1.2,3.73,3.19c0.66,1.73,0.66,2.93,1.34,6.13c0.79,0.79,5.46,0.66,6.25,0c-0.13-4.14-0.26-8.53-0.26-13.05
		c0-5.06,0.67-10.1,0.94-13.18c-0.67-0.8-4.8-1.06-6.13-0.54c-0.4,2.14-0.93,4.27-1.47,5.87c-0.66,2-1.73,3.19-3.72,3.46
		c-5.33,0.53-13.04,0.4-19.98,0.4c-0.39,0-0.79-0.68-0.79-0.94c0-8.91,0.14-16.76,0.14-25.96c0-0.79,0.79-2.66,1.86-2.92
		c1.2-0.13,18.64-0.13,20.63,0c3.74,0.26,5.06,1.46,6.12,4.79c0.67,2.26,1.33,4.13,1.47,7.85c0.67,0.52,5.19,0.66,5.99-0.27
		c0.13-5.73,1.33-15.3,2.25-19.03c0-0.28-0.4-0.67-0.66-0.8c-3.19,0.26-10.26,0.4-15.45,0.4h-26.89c-7.58,0-16.37-0.4-19.97-0.4
		c-0.8,0.66-1.07,4.26-0.4,5.06c3.6,0.53,6.12,0.93,7.99,1.46c3.05,0.93,3.6,2.13,3.86,6.52c0.13,2.4,0.13,13.7,0.13,25.42
		c0,14.77,0.13,28.76-0.13,31.01c-0.26,4.26-1.2,5.99-4.39,6.8c-2.53,0.66-6.79,1.06-11.45,1.59c-0.67,0.8-0.54,4.8,0.13,5.33
		c5.59,0,14.65-0.4,23.57-0.4c9.72,0,22.62,0.53,36.73,0.53c6.79,0,7.86-1.06,8.52-2.65c2.4-4.8,5.2-14.79,5.87-19.18
		c-0.66-0.92-4.53-2.12-5.6-2C672.97,67.64,670.45,73.11,668.32,75.9 M68.51,5.35H19.12c-5.99,0-8.78-0.67-11.05-1.87
		C7.68,3.22,5.95,3.75,5.95,4.16c-0.4,6.25-1.86,17.7-2.93,23.56c0.26,0.8,4.92,2,5.72,1.59c2.13-5.98,3.86-10.51,5.46-13.17
		c1.73-3.06,3.73-3.86,5.86-3.86H35.9c0.39,0,0.94,0.66,0.94,1.2c0,22.75-0.14,43.65-0.54,58.17c-0.26,6.11-0.93,8.77-5.45,9.71
		c-2.27,0.53-6,0.93-10.13,1.46c-0.53,0.68-0.66,4.67,0,5.33c3.19-0.13,9.99-0.4,21.17-0.4c10.64,0,19.03,0.27,22.76,0.4
		c0.8-0.53,1.2-4.53,0.66-5.33c-5.86-0.79-8.77-1.05-11.05-1.72c-3.19-0.93-3.99-3.06-4.26-5.46c-0.53-6.66-0.4-42.19-0.4-62.29
		c0-0.27,0.27-0.8,0.67-0.93c3.2-0.13,10.25-0.13,17.57,0c2.53,0,4.13,1.07,5.33,3.72c0.93,2.53,1.73,7.33,2.13,12.78
		c0.53,0.67,5.33,0.81,5.99,0c0.67-7.46,1.86-19.43,3.19-24.89c-0.27-0.27-1.33-0.94-2-0.8C78.89,5.08,75.7,5.35,68.51,5.35
		 M406.78,90.14c11.85,0,24.9-3.46,30.09-5.32c0.4-0.4,0.67-3.06,0.67-3.46c-3.33-1.6-3.74-2.39-3.86-4.13
		c0-1.86-0.14-10.51,0-14.24c0.13-3.33,0.8-5.06,3.46-5.86c1.33-0.39,3.2-0.66,4.53-0.93c0.54-0.4,0.66-4.93,0.13-5.46
		c-2.39,0.13-6.92,0.41-16.37,0.41c-9.98,0-16.77-0.41-20.24-0.41c-0.65,0.41-1.19,4.8-0.26,5.33c4.79,0.8,8.39,1.06,10.78,1.73
		c3.74,1.33,4.53,3.2,4.67,7.05c0,4.67,0.13,8.12-0.27,12.26c-0.13,1.33-0.92,4.26-2.4,5.19c-1.73,1.33-4.53,1.86-8.25,1.86
		c-24.23,0-36.2-17.29-36.2-39.93c0-20.5,9.45-35.27,29.54-35.27c9.04,0,14.11,1.46,18.1,3.86c3.86,2.26,5.32,6.52,6.52,16.5
		c0.68,0.67,5.6,0.28,6-0.53c0-5.59,1.46-16.63,2.53-22.76c-9.05-0.8-16.11-3.06-27.82-3.06c-10.25,0-18.9,1.6-26.35,5.05
		c-14.91,6.66-23.97,20.1-23.97,38.21C357.79,73.37,374.31,90.14,406.78,90.14"/>
	<path class="st0" d="M343.38,166.53c-1.44,2.3-2.68,2.68-4.13,2.68c-3.07,0-8.71,0.06-10.67-0.45c-0.26-0.13-1.31-0.79-1.38-1.84
		c-0.2-2.55-0.2-5.95-0.2-15.97c0-6.74,0.06-10.93,0.2-13.48c0.07-1.17,0.26-2.1,1.83-2.49c0.91-0.13,2.03-0.46,3.86-0.66
		c0.33-0.46,0.4-2.15,0-2.55c-1.44,0.06-3.8,0.2-8.9,0.2c-4.71,0-6.94-0.2-9.16-0.2c-0.4,0.33-0.53,2.09-0.2,2.55
		c1.5,0.2,3.07,0.46,3.92,0.66c1.64,0.33,1.97,1.11,2.03,3.54c0.13,1.83,0.06,5.89,0.06,12.76c0,3.8-0.06,13.81-0.2,15.64
		c-0.12,1.05-0.4,1.97-1.96,2.42c-1.44,0.39-2.69,0.46-5.11,0.72c-0.39,0.26-0.32,2.36,0.07,2.62c1.18,0,7.2-0.19,10.6-0.19
		c3.47,0,14.59,0.32,19.24,0.32c1.97,0,2.69-0.26,2.89-0.85c1.3-2.16,3.27-9.1,3.73-11.79c-0.4-0.52-2.03-1.17-2.69-1.11
		C346.13,161.63,344.62,164.63,343.38,166.53"/>
	<path class="st0" d="M295.38,134.46c-2.68-2.17-6.68-2.55-9.04-2.55c-4.05,0-7.14,0.07-11.59,0.07c-3.13,0-7.19-0.2-8.04-0.2
		c-0.34,0.33-0.47,2.09-0.2,2.54c1.37,0.14,2.42,0.33,3.27,0.53c2.09,0.39,2.56,0.92,2.68,3.27c0.07,2.16,0.07,3.74,0.07,13.68
		c0,5.24-0.07,11.72-0.13,14.08c-0.14,1.9-0.2,3.21-1.9,3.65c-0.85,0.27-2.29,0.4-3.8,0.59c-0.27,0.33-0.27,2.24,0.06,2.55
		c1.44,0,6.02-0.19,9.1-0.19c2.62,0,7.72,0.19,9.82,0.19c0.33-0.32,0.46-2.22,0.13-2.62c-1.96-0.19-3.4-0.38-4.51-0.65
		c-1.77-0.52-2.1-1.18-2.29-2.75c-0.13-2.09-0.2-4.72-0.2-14.93c0-12.18,0.07-14.14,0.2-15.64c0.07-0.39,0.32-0.79,0.52-0.92
		c0.39-0.32,2.35-0.38,2.95-0.38c7,0,10.27,3.92,10.27,10.01c0,3.67-1.17,6.54-4.13,8.12c-1.37,0.64-2.68,0.98-4.58,0.98
		c-0.65,0-1.76-0.08-2.42-0.2c-0.06,0.13-0.26,0.4-0.2,0.85c0.07,0.46,0.52,1.7,0.91,1.96c0.85,0.27,1.63,0.33,2.82,0.33
		c2.03,0,4.71-0.33,7.19-1.63c3.34-1.65,7.21-5.43,7.21-11.59C299.57,139.24,297.67,136.29,295.38,134.46"/>
	<path class="st0" d="M389.47,153.63c-0.85,0.07-2.69,0.07-4.32,0.07c-1.9,0-4.45,0-5.17-0.07c-0.19-0.07-0.27-0.26-0.27-0.45
		c1.25-3.93,3.6-9.95,4.72-13.42c0.13-0.13,0.32-0.07,0.32-0.07c1.18,2.62,3.8,9.89,5.03,13.29
		C389.86,153.31,389.67,153.63,389.47,153.63 M408.65,170.07c-4.98-0.65-5.5-1.05-7.59-5.69c-2.55-5.83-9.82-24.94-11.13-28.61
		c-0.46-1.31-0.85-2.56-1.18-3.86c-0.32,0.07-1.05,0.07-2.61,0.07c-1.25,0-2.09,0-2.43-0.07c-0.2,1.05-0.79,2.75-1.31,4.26
		c-1.44,4.25-7.79,20.68-10.67,27.55c-2.29,5.31-3.2,5.7-8.05,6.35c-0.26,0.33-0.26,2.3,0,2.62c1.24,0,3.41-0.19,7.66-0.19
		c4.38,0,7.79,0.19,9.1,0.19c0.33-0.32,0.46-2.29,0.2-2.62c-1.17-0.14-2.62-0.33-3.46-0.53c-1.9-0.45-2.17-0.91-2.17-2.15
		c0-1.3,1.7-5.56,3.08-9.29c0-0.13,0.45-0.59,0.79-0.59c0.71-0.08,1.11-0.08,5.29-0.08c2.43,0,5.43,0,6.61,0.08
		c0,0,0.52,0.13,0.66,0.46c1.04,2.55,2.75,7.02,3.6,9.76c0.13,0.46,0,1.3-0.79,1.63c-0.99,0.33-2.36,0.53-3.8,0.72
		c-0.32,0.33-0.27,2.3,0,2.62c1.31,0,5.57-0.19,9.49-0.19c3.73,0,6.87,0.12,8.58,0.19C408.78,172.36,409.04,170.32,408.65,170.07"/>
	<path class="st0" d="M456.51,159.06c-1.9,4.19-3.6,7.01-4.83,8.45c-1.25,1.38-2.17,1.84-4,1.84c-5.16,0-13.61-0.13-15.52-0.39
		c0,0-0.19-0.39-0.13-0.53c4.32-6.48,21.07-29.91,23.96-35.08c0-0.33-0.06-1.25-0.19-1.44c-1.44,0.07-4.91,0.07-8.63,0.07h-16.64
		c-2.81,0-4.12,0-5.17-0.99c-0.13-0.12-1.31,0.19-1.31,0.32c-0.39,3.73-1.12,9.04-1.63,11.65c0.06,0.39,2.28,1.11,2.62,0.72
		c0.79-2.1,1.71-4.32,2.69-5.89c1.23-2.22,2.74-2.42,4.19-2.49c4.25-0.26,12.3-0.26,15.32-0.26c0.26,0,0.33,0.33,0.26,0.4
		c-3.2,5.49-20.35,29.65-25.07,35.54c0,0.26,0.19,1.57,0.39,1.7c1.64-0.12,4.98-0.19,7.01-0.19c6.87,0.06,14.14,0.12,22.18,0.26
		c2.88,0,3.15-0.53,3.27-0.73c1.25-2.49,3.6-10.14,3.93-11.84C459.07,159.66,456.84,158.81,456.51,159.06"/>
	<path class="st0" d="M498.74,153.63c-0.86,0.07-2.69,0.07-4.32,0.07c-1.89,0-4.45,0-5.17-0.07c-0.2-0.07-0.27-0.26-0.27-0.45
		c1.26-3.93,3.61-9.95,4.72-13.42c0.13-0.13,0.33-0.07,0.33-0.07c1.18,2.62,3.8,9.89,5.04,13.29c0.07,0.33-0.13,0.65-0.13,0.65
		 M517.92,170.07c-4.97-0.65-5.5-1.05-7.59-5.69c-2.54-5.83-9.81-24.94-11.12-28.61c-0.46-1.31-0.86-2.56-1.17-3.86
		c-0.33,0.07-1.05,0.07-2.62,0.07c-1.24,0-2.09,0-2.43-0.07c-0.19,1.05-0.78,2.75-1.3,4.26c-1.43,4.25-7.78,20.68-10.67,27.55
		c-2.29,5.31-3.21,5.7-8.05,6.35c-0.26,0.33-0.26,2.3,0,2.62c1.25,0,3.41-0.19,7.66-0.19c4.39,0,7.79,0.19,9.1,0.19
		c0.32-0.32,0.45-2.29,0.19-2.62c-1.17-0.14-2.62-0.33-3.47-0.53c-1.9-0.45-2.16-0.91-2.16-2.15c0-1.3,1.71-5.56,3.08-9.29
		c0-0.13,0.46-0.59,0.79-0.59c0.72-0.08,1.11-0.08,5.3-0.08c2.43,0,5.43,0,6.61,0.08c0,0,0.53,0.13,0.66,0.46
		c1.04,2.55,2.74,7.02,3.6,9.76c0.13,0.46,0,1.3-0.78,1.63c-0.98,0.33-2.36,0.53-3.8,0.72c-0.33,0.33-0.26,2.3,0,2.62
		c1.31,0,5.57-0.19,9.49-0.19c3.73,0,6.87,0.12,8.57,0.19C518.06,172.36,518.32,170.32,517.92,170.07"/>
</g>
</svg>
